<mxfile host="app.diagrams.net" modified="2021-01-29T10:03:55.974Z" agent="5.0 (Windows NT 10.0; Win64; x64) AppleWebKit/537.36 (KHTML, like Gecko) Chrome/88.0.4324.104 Safari/537.36" etag="vfmAWQmATJ9Ci9eZb9Hi" version="14.2.7" type="github">
  <diagram name="Page-1" id="822b0af5-4adb-64df-f703-e8dfc1f81529">
    <mxGraphModel dx="1673" dy="896" grid="1" gridSize="10" guides="1" tooltips="1" connect="1" arrows="1" fold="1" page="1" pageScale="1" pageWidth="1100" pageHeight="850" background="#ffffff" math="0" shadow="0">
      <root>
        <mxCell id="0" />
        <mxCell id="1" parent="0" />
        <mxCell id="PggZKos-Q1qsGAEOMdZP-15" value="" style="edgeStyle=orthogonalEdgeStyle;rounded=0;orthogonalLoop=1;jettySize=auto;html=1;" edge="1" parent="1" source="PggZKos-Q1qsGAEOMdZP-3" target="PggZKos-Q1qsGAEOMdZP-14">
          <mxGeometry relative="1" as="geometry" />
        </mxCell>
        <mxCell id="PggZKos-Q1qsGAEOMdZP-3" value="" style="verticalLabelPosition=bottom;aspect=fixed;html=1;verticalAlign=top;strokeColor=none;align=center;outlineConnect=0;shape=mxgraph.citrix.desktop;" vertex="1" parent="1">
          <mxGeometry x="150" y="180" width="70.84" height="78" as="geometry" />
        </mxCell>
        <mxCell id="PggZKos-Q1qsGAEOMdZP-17" style="edgeStyle=orthogonalEdgeStyle;rounded=0;orthogonalLoop=1;jettySize=auto;html=1;" edge="1" parent="1" source="PggZKos-Q1qsGAEOMdZP-4" target="PggZKos-Q1qsGAEOMdZP-14">
          <mxGeometry relative="1" as="geometry">
            <Array as="points">
              <mxPoint x="210" y="382" />
              <mxPoint x="210" y="425" />
            </Array>
          </mxGeometry>
        </mxCell>
        <mxCell id="PggZKos-Q1qsGAEOMdZP-4" value="" style="verticalLabelPosition=bottom;aspect=fixed;html=1;verticalAlign=top;strokeColor=none;align=center;outlineConnect=0;shape=mxgraph.citrix.tower_server;" vertex="1" parent="1">
          <mxGeometry x="50.29" y="350" width="49.71" height="65" as="geometry" />
        </mxCell>
        <mxCell id="PggZKos-Q1qsGAEOMdZP-19" style="edgeStyle=orthogonalEdgeStyle;rounded=0;orthogonalLoop=1;jettySize=auto;html=1;" edge="1" parent="1" source="PggZKos-Q1qsGAEOMdZP-6" target="PggZKos-Q1qsGAEOMdZP-14">
          <mxGeometry relative="1" as="geometry" />
        </mxCell>
        <mxCell id="PggZKos-Q1qsGAEOMdZP-6" value="" style="verticalLabelPosition=bottom;aspect=fixed;html=1;verticalAlign=top;strokeColor=none;align=center;outlineConnect=0;shape=mxgraph.citrix.tablet_2;" vertex="1" parent="1">
          <mxGeometry x="61.4" y="560" width="60" height="62.93" as="geometry" />
        </mxCell>
        <mxCell id="PggZKos-Q1qsGAEOMdZP-20" style="edgeStyle=orthogonalEdgeStyle;rounded=0;orthogonalLoop=1;jettySize=auto;html=1;" edge="1" parent="1" source="PggZKos-Q1qsGAEOMdZP-8" target="PggZKos-Q1qsGAEOMdZP-14">
          <mxGeometry relative="1" as="geometry" />
        </mxCell>
        <mxCell id="PggZKos-Q1qsGAEOMdZP-8" value="" style="verticalLabelPosition=bottom;aspect=fixed;html=1;verticalAlign=top;strokeColor=none;align=center;outlineConnect=0;shape=mxgraph.citrix.laptop_1;" vertex="1" parent="1">
          <mxGeometry x="150" y="610" width="70.91" height="60" as="geometry" />
        </mxCell>
        <mxCell id="PggZKos-Q1qsGAEOMdZP-16" value="" style="edgeStyle=orthogonalEdgeStyle;rounded=0;orthogonalLoop=1;jettySize=auto;html=1;" edge="1" parent="1" source="PggZKos-Q1qsGAEOMdZP-9">
          <mxGeometry relative="1" as="geometry">
            <mxPoint x="240" y="380" as="targetPoint" />
          </mxGeometry>
        </mxCell>
        <mxCell id="PggZKos-Q1qsGAEOMdZP-9" value="" style="verticalLabelPosition=bottom;aspect=fixed;html=1;verticalAlign=top;strokeColor=none;align=center;outlineConnect=0;shape=mxgraph.citrix.database_server;" vertex="1" parent="1">
          <mxGeometry x="60.29" y="240" width="62.22" height="70" as="geometry" />
        </mxCell>
        <mxCell id="PggZKos-Q1qsGAEOMdZP-18" style="edgeStyle=orthogonalEdgeStyle;rounded=0;orthogonalLoop=1;jettySize=auto;html=1;" edge="1" parent="1" source="PggZKos-Q1qsGAEOMdZP-13" target="PggZKos-Q1qsGAEOMdZP-14">
          <mxGeometry relative="1" as="geometry" />
        </mxCell>
        <mxCell id="PggZKos-Q1qsGAEOMdZP-13" value="Infected device" style="fontColor=#0066CC;verticalAlign=top;verticalLabelPosition=bottom;labelPosition=center;align=center;html=1;outlineConnect=0;fillColor=#CCCCCC;strokeColor=#6881B3;gradientColor=none;gradientDirection=north;strokeWidth=2;shape=mxgraph.networks.security_camera;" vertex="1" parent="1">
          <mxGeometry x="25.14" y="450" width="94.86" height="62.96" as="geometry" />
        </mxCell>
        <mxCell id="PggZKos-Q1qsGAEOMdZP-22" value="" style="edgeStyle=orthogonalEdgeStyle;rounded=0;orthogonalLoop=1;jettySize=auto;html=1;" edge="1" parent="1" source="PggZKos-Q1qsGAEOMdZP-14" target="PggZKos-Q1qsGAEOMdZP-21">
          <mxGeometry relative="1" as="geometry" />
        </mxCell>
        <mxCell id="PggZKos-Q1qsGAEOMdZP-14" value="" style="image;html=1;image=img/lib/clip_art/networking/Router_Icon_128x128.png" vertex="1" parent="1">
          <mxGeometry x="230" y="385" width="80" height="80" as="geometry" />
        </mxCell>
        <mxCell id="PggZKos-Q1qsGAEOMdZP-25" value="" style="edgeStyle=orthogonalEdgeStyle;rounded=0;orthogonalLoop=1;jettySize=auto;html=1;" edge="1" parent="1" source="PggZKos-Q1qsGAEOMdZP-21" target="PggZKos-Q1qsGAEOMdZP-24">
          <mxGeometry relative="1" as="geometry" />
        </mxCell>
        <mxCell id="PggZKos-Q1qsGAEOMdZP-21" value="Internet&lt;br&gt;" style="aspect=fixed;perimeter=ellipsePerimeter;html=1;align=center;shadow=0;dashed=0;spacingTop=3;image;image=img/lib/active_directory/internet_cloud.svg;" vertex="1" parent="1">
          <mxGeometry x="410" y="400" width="80.95" height="51" as="geometry" />
        </mxCell>
        <mxCell id="PggZKos-Q1qsGAEOMdZP-24" value="PasteBin&lt;br&gt;Server&lt;br&gt;" style="verticalLabelPosition=bottom;aspect=fixed;html=1;verticalAlign=top;strokeColor=none;align=center;outlineConnect=0;shape=mxgraph.citrix.tower_server;" vertex="1" parent="1">
          <mxGeometry x="600" y="392" width="49.71" height="65" as="geometry" />
        </mxCell>
        <mxCell id="PggZKos-Q1qsGAEOMdZP-30" value="" style="edgeStyle=orthogonalEdgeStyle;rounded=0;orthogonalLoop=1;jettySize=auto;html=1;startArrow=none;startFill=0;endArrow=classic;endFill=1;" edge="1" parent="1" source="PggZKos-Q1qsGAEOMdZP-26" target="PggZKos-Q1qsGAEOMdZP-24">
          <mxGeometry relative="1" as="geometry" />
        </mxCell>
        <mxCell id="PggZKos-Q1qsGAEOMdZP-26" value="Internet" style="aspect=fixed;perimeter=ellipsePerimeter;html=1;align=center;shadow=0;dashed=0;spacingTop=3;image;image=img/lib/active_directory/internet_cloud.svg;" vertex="1" parent="1">
          <mxGeometry x="770" y="399" width="80.95" height="51" as="geometry" />
        </mxCell>
        <mxCell id="PggZKos-Q1qsGAEOMdZP-32" value="" style="edgeStyle=orthogonalEdgeStyle;rounded=0;orthogonalLoop=1;jettySize=auto;html=1;startArrow=none;startFill=0;endArrow=classic;endFill=1;" edge="1" parent="1" source="PggZKos-Q1qsGAEOMdZP-31" target="PggZKos-Q1qsGAEOMdZP-26">
          <mxGeometry relative="1" as="geometry" />
        </mxCell>
        <mxCell id="PggZKos-Q1qsGAEOMdZP-31" value="" style="aspect=fixed;pointerEvents=1;shadow=0;dashed=0;html=1;strokeColor=none;labelPosition=center;verticalLabelPosition=bottom;verticalAlign=top;align=center;fillColor=#00188D;shape=mxgraph.azure.user" vertex="1" parent="1">
          <mxGeometry x="950" y="400" width="47" height="50" as="geometry" />
        </mxCell>
      </root>
    </mxGraphModel>
  </diagram>
</mxfile>
